<?xml version="1.0" encoding="utf-8"?>
<!-- Generator: Adobe Illustrator 25.0.1, SVG Export Plug-In . SVG Version: 6.00 Build 0)  -->
<svg version="1.1" id="Capa_1" xmlns="http://www.w3.org/2000/svg" xmlns:xlink="http://www.w3.org/1999/xlink" x="0px" y="0px"
	 viewBox="0 0 512 512" style="enable-background:new 0 0 512 512;" xml:space="preserve">
<style type="text/css">
	.st0{opacity:0;}
	.st1{fill:#414141;}
</style>
<g>
	<g class="st0">
		<path d="M37,5l40.8,460.8L261,517l183.1-51.2L485,5H37z M397.8,155.7l-5.2,57.9l-15.5,173.6L261,419.2l-0.1,0l-116-32.1l-8.1-90.8
			h56.8l4.2,47.1l63.1,17l0.1-0.1l63.1-17l8.6-78.4l-198.7,0.5l-5.6-53.7l209.1-2.4l4.2-57.4l-218.9,0.6l-3.7-53.4H261h141.8
			L397.8,155.7z"/>
	</g>
	<g>
		<g>
			<g>
				<path class="st1" d="M32,0l40.8,460.8L256,512l183.1-51.2L480,0H32z M392.8,150.7l-5.2,57.9l-15.5,173.6L256,414.2l-0.1,0
					l-116-32.1l-8.1-90.8h56.8l4.2,47.1l63.1,17l0.1-0.1l63.1-17l8.6-78.4l-198.7,0.5l-5.6-53.7l209.1-2.4l4.2-57.4l-218.9,0.6
					l-3.7-53.4H256h141.8L392.8,150.7z"/>
			</g>
		</g>
	</g>
</g>
<polygon points="35,14 478.8,14 480,0 32,0 33.3,14 "/>
<polygon points="126.6,161 335.7,161 336.7,147 117.9,147.6 118.9,161 "/>
<polygon points="137.1,274 326.4,274 327.7,260 129.1,260.6 130.5,274 "/>
<polygon points="144.2,397.6 256,428.8 255.9,414.2 139.9,382 141.2,396.8 "/>
<polygon points="367,398.2 256,428.8 255.9,414.2 372.1,382.1 370.8,397.1 "/>
</svg>
