<?xml version="1.0" encoding="utf-8"?>
<!-- Generator: Adobe Illustrator 25.0.1, SVG Export Plug-In . SVG Version: 6.00 Build 0)  -->
<svg version="1.1" id="Capa_1" xmlns="http://www.w3.org/2000/svg" xmlns:xlink="http://www.w3.org/1999/xlink" x="0px" y="0px"
	 viewBox="0 0 512 512" style="enable-background:new 0 0 512 512;" xml:space="preserve">
<style type="text/css">
	.st0{fill:#414141;}
</style>
<g>
	<g>
		<path class="st0" d="M32,0l0.5,5.5l40.3,455.3L256,512l183.1-51.2l40.2-453L480,0H32z M391.5,150.7H256h-79.2l0.5,5.1l4.7,52.8
			H256h130.4L371,382.1l-115,32.1l-0.1,0L141,382.1l-8.1-90.8h56.3l4.2,47.1l62.5,17l0.1-0.1l62.6-17l6.5-73.3H256H130.6L115.5,94.2
			H256h140.5L391.5,150.7z"/>
	</g>
</g>
<polygon points="35,14 478.8,14 480,0 32,0 33.3,14 "/>
<polygon points="181.5,164.6 390.4,164.6 391.6,150.6 176.8,150.7 178,164.5 "/>
<polygon points="134.8,279 323.9,279 325,265 130.5,265.1 131.6,278.9 "/>
<polygon points="145.2,397.6 255.9,428.8 255.9,414.3 140.9,382 142.2,396.8 "/>
<polygon points="365.9,398.2 255.9,428.8 256,414.2 371,382.1 369.7,397.1 "/>
</svg>
