<?xml version="1.0" encoding="utf-8"?>
<!-- Generator: Adobe Illustrator 25.0.1, SVG Export Plug-In . SVG Version: 6.00 Build 0)  -->
<svg version="1.1" id="Layer_1" xmlns="http://www.w3.org/2000/svg" xmlns:xlink="http://www.w3.org/1999/xlink" x="0px" y="0px"
	 viewBox="0 0 630 630" style="enable-background:new 0 0 630 630;" xml:space="preserve">
<style type="text/css">
	.st0{fill:#414141;}
</style>
<path class="st0" d="M0.7,0.9v630h630V0.9H0.7z M343.8,492.2c0,61.3-35.9,89.2-88.4,89.2c-47.4,0-74.9-24.5-88.8-54.1l48.2-29.2
	c9.3,16.5,17.8,30.5,38.1,30.5c19.5,0,31.7-7.6,31.7-37.2V290.1h59.2V492.2z M483.7,581.5c-55,0-90.5-26.2-107.9-60.5l48.1-28
	c12.7,20.7,29.2,36,58.4,36c24.5,0,40.2-12.3,40.2-29.2c0-20.3-16.1-27.5-43.1-39.3l-14.8-6.4c-42.7-18.2-71.1-41-71.1-89.2
	c0-44.4,33.8-78.2,86.7-78.2c37.6,0,64.7,13.1,84.2,47.4l-46.1,29.6c-10.1-18.2-21.1-25.4-38.1-25.4c-17.3,0-28.3,11-28.3,25.4
	c0,17.8,11,25,36.4,36l14.8,6.3c50.3,21.6,78.7,43.6,78.7,93C581.8,552.3,539.9,581.5,483.7,581.5z"/>
<polygon points="4.2,14 630,14 630,0 0,0 0,14 "/>
<path d="M520.3,369.5l47.4-30.8l-7.7-11.9L516.1,355l0,0c-6.4-12.4-15.2-19-17-20.2c-18.8-12.4-47.9,1.1-46.2,21.5
	c0,0,41.2-38.5,60.9,17.1L520.3,369.5z"/>
<path d="M372.6,522.9l8.7-5.2c0,0,28,61.2,108.7,57c14-0.7,44.9-7.9,67.9-27.5c20.6-17.5,23.8-44.4,23.8-44.4s2.6,21.1-11,47
	c-13.6,25.8-75.8,48.2-130.7,30.8C403.5,569.1,389.5,550.3,372.6,522.9L372.6,522.9z"/>
<path d="M393.8,372.9l0.6,5.6c17.4,67.3,126,68.3,126.8,111.9c0,0-14.5-17.1-73.7-40.6c-4.9-1.9-50-24.5-52.7-57.7
	c-0.2-3-1.1-5.8-1.3-8.8C393.1,379.9,393.3,376.3,393.8,372.9L393.8,372.9z"/>
<path d="M160,529.4l8.2-4.5c0,0,11.1,23.9,37.9,38c32.4,17,83.9,22.4,116.5-10.9c16.7-17,20-40.9,20-40.9s3.2,24.7-8.5,42.1
	c-21.6,32.3-66.5,44.4-114.4,28.8C187.8,571.6,174.7,554,160,529.4L160,529.4z"/>
</svg>
